<svg width="16" height="16" viewBox="0 0 16 16" fill="none" xmlns="http://www.w3.org/2000/svg">
<path fill-rule="evenodd" clip-rule="evenodd" d="M7.09258 0.184614C5.47997 0.821022 2.98028 2.96464 1.3951 5.0705C0.0739303 6.82553 -0.237796 7.78154 0.163004 8.84905C0.764172 10.4506 2.93645 12.9983 5.07069 14.6049C6.82569 15.9261 7.78168 16.2378 8.84917 15.837C10.4507 15.2358 12.9984 13.0635 14.6049 10.9292C15.9261 9.17419 16.2378 8.21818 15.837 7.15067C15.2358 5.54911 13.0636 3.00141 10.9293 1.39484C9.14595 0.0523015 8.19103 -0.248888 7.09258 0.184614ZM9.8362 3.94641C10.4162 4.53965 11.0719 5.52462 11.7112 6.76301C12.2666 7.83899 12.5371 8.58596 12.5371 9.04355C12.5371 9.35234 12.5207 9.37917 12.0534 9.83609C11.4601 10.4161 10.4752 11.0718 9.23683 11.7111C8.16087 12.2665 7.41391 12.5371 6.95633 12.5371C6.64754 12.5371 6.62072 12.5206 6.1638 12.0533C5.58379 11.4601 4.92811 10.4751 4.28884 9.23671C3.73345 8.16073 3.46289 7.41376 3.46289 6.95617C3.46289 6.64738 3.4793 6.62055 3.94662 6.16363C4.53238 5.59095 5.50779 4.93892 6.72307 4.30785C7.80123 3.74798 8.57568 3.4648 9.03193 3.46354C9.35566 3.46267 9.37414 3.47374 9.8362 3.94641Z" fill="url(#paint0_linear_2112_17357)"/>
<path d="M7.27637 0.649414C7.72407 0.472787 8.11946 0.447933 8.60352 0.600586C9.05376 0.742604 9.59141 1.0422 10.3096 1.55957L10.6289 1.79395C11.6629 2.57232 12.7128 3.58499 13.5771 4.59863C14.3402 5.49351 14.9328 6.36012 15.25 7.04492L15.3691 7.32617C15.5302 7.75517 15.5488 8.14468 15.3916 8.62695C15.2459 9.07367 14.9464 9.6071 14.4365 10.3145L14.2051 10.6289C13.4266 11.663 12.414 12.7128 11.4004 13.5771C10.5056 14.3401 9.63984 14.9328 8.95508 15.25L8.67383 15.3691C8.24488 15.5302 7.85526 15.5488 7.37305 15.3916C6.92636 15.2459 6.39286 14.9463 5.68555 14.4365L5.37109 14.2051C4.33703 13.4266 3.28716 12.4141 2.42285 11.4004C1.65992 10.5056 1.06719 9.63984 0.75 8.95508L0.630859 8.67285C0.469984 8.24412 0.451335 7.85503 0.608398 7.37305C0.754048 6.92637 1.05373 6.39281 1.56348 5.68555L1.79492 5.37109C2.56297 4.35082 3.55789 3.31424 4.55859 2.45605C5.44108 1.69927 6.30098 1.10432 6.99121 0.774414L7.27637 0.649414ZM9.03027 2.96387C8.71502 2.9648 8.3427 3.05959 7.93945 3.20703C7.63004 3.32018 7.28006 3.47236 6.89258 3.66211L6.49219 3.86426C5.41263 4.42488 4.49304 5.01463 3.85352 5.57031L3.59668 5.80566C3.38558 6.01207 3.20593 6.18522 3.10254 6.35449C2.96054 6.58712 2.96289 6.79968 2.96289 6.95605C2.96289 7.27081 3.05292 7.63662 3.19727 8.03516C3.30758 8.33971 3.45723 8.68393 3.64453 9.06836L3.84473 9.46582C4.41249 10.5657 5.00552 11.4963 5.56738 12.1436L5.80664 12.4033C6.01296 12.6143 6.18623 12.7942 6.35547 12.8975C6.58787 13.0392 6.79979 13.0371 6.95605 13.0371C7.27081 13.0371 7.63663 12.9471 8.03516 12.8027C8.33971 12.6924 8.68393 12.5428 9.06836 12.3555L9.46582 12.1553C10.5656 11.5875 11.4963 10.9945 12.1436 10.4326L12.4033 10.1934C12.6144 9.98699 12.7941 9.81379 12.8975 9.64453C13.0392 9.41215 13.0371 9.20023 13.0371 9.04395C13.0371 8.72919 12.9471 8.36337 12.8027 7.96484C12.6924 7.66029 12.5428 7.31607 12.3555 6.93164L12.1553 6.5332C11.5876 5.43362 10.9944 4.50362 10.4326 3.85645L10.1934 3.59668C9.98645 3.38501 9.812 3.20211 9.63965 3.09863C9.46291 2.99252 9.29581 2.96965 9.1582 2.96484L9.03027 2.96387Z" stroke="url(#paint1_linear_2112_17357)" stroke-opacity="0.5"/>
<defs>
<linearGradient id="paint0_linear_2112_17357" x1="8" y1="0" x2="8" y2="16" gradientUnits="userSpaceOnUse">
<stop stop-color="#51F93E"/>
<stop offset="1" stop-color="#27930F"/>
</linearGradient>
<linearGradient id="paint1_linear_2112_17357" x1="8" y1="-0.772414" x2="8" y2="5.57241" gradientUnits="userSpaceOnUse">
<stop stop-color="white" stop-opacity="0.27"/>
<stop offset="1" stop-color="white" stop-opacity="0"/>
</linearGradient>
</defs>
</svg>
